<svg xmlns="http://www.w3.org/2000/svg" id="Capa_1" data-name="Capa 1" viewBox="0 0 100.76 78.46"><defs><style>.cls-1{fill:#58bbad;}</style></defs><title>petcicla [Recuperado]</title><path class="cls-1" d="M60.89,31.43l-.13.1C60.84,31.5,60.88,31.47,60.89,31.43Z"></path><polygon class="cls-1" points="61.87 29.98 61.65 30.15 61.63 30.09 61.62 30.18 60.87 30.75 61.09 30.78 61.84 30.21 61.87 29.98"></polygon><path class="cls-1" d="M72.45,35.32c-.73,0-1.18,0-1.42,0l-.49.17.13,0,2.29.08c.32,0,.62,0,.88-.08Z"></path><path class="cls-1" d="M71,35.34c1-.41-1-.08,0,0Z"></path><polygon class="cls-1" points="95.62 32.98 94.74 32.94 95.62 33.01 95.62 32.98"></polygon><polygon class="cls-1" points="94.88 33.14 95.38 33.19 95.38 33.16 94.88 33.14"></polygon><path class="cls-1" d="M83.31,36.87,84,37l.3,0-.45-.07Z"></path><path class="cls-1" d="M99.53,35.85l.13-.1C99.58,35.78,99.54,35.81,99.53,35.85Z"></path><polygon class="cls-1" points="98.55 37.29 98.77 37.12 98.79 37.18 98.8 37.1 99.55 36.53 99.33 36.5 98.58 37.07 98.55 37.29"></polygon><path class="cls-1" d="M99.62,36h0c-.08,0-.11-.09-.09-.13l-.45.34-.88-.1c-.59-.34.73-.36,1.35-.69a2.9,2.9,0,0,0-.58-.08l0-.13-.62-.14h0c-.48-.11-.92-.22-1.34-.34l1.55.17a.32.32,0,0,0,0-.4c-1-.19-2-.32-3-.45l.08-1h-.06l-.05,1-.15,0,.08-.81h-.12l0,.81L95,34l0-.52-.66,0a41.25,41.25,0,0,1-4.9-.5,8.55,8.55,0,0,0,2.2,0l-.16,0-.42,0-1.47-.14c-.82-.07-1.8-.17-2.73-.27a25.81,25.81,0,0,1,2.71.18,38.69,38.69,0,0,0,4.82.44l.55,0-.55,0c-.95-.09-2-.24-3-.39,1,.11,2,.17,3,.22l.4,0-.39,0c-2.6-.21-5.06-.45-7.61-.76L85.68,32a1.92,1.92,0,0,1,.78-.27l.12,0-1.09-.17-1.76-.11-.45,0v-.14c.71.06,1.45.16,2.21.28l2,.1h.05L85,31.28l-1.75-.11V31l1.74.24c1.44.08,2.87.15,4.26.18-.93-.12-2-.26-2.92-.34l-3.07-.21L83.43,29a9.05,9.05,0,0,1-.05-1.27c0-1,.19-2.09.28-3.06-.11.15,0-.33-.09-.33a18.59,18.59,0,0,1,.29-3.22c0-.16.07-.15.12-.31a8.69,8.69,0,0,1-.06-.91l0-.64c0-.24.06-.47.1-.72l0-.22h.14L84.05,20l-.06.83v.06c-.19,2.84-.37,5.53-.55,8.19l0,.4a31.07,31.07,0,0,0,.42-5.18,10.92,10.92,0,0,1,0-1.14C84,22,84,21,84.09,20l.08-1.69H84l.18-1.62c0-.49-.36.28-.29-.53l-.06.12a4.47,4.47,0,0,1-.13,1.32c-.2.18-.17-.81-.24-1.56l.27-.09-.3-.39,0,0h0v-.05l.06.08a1.69,1.69,0,0,1,.33.16l-.23-.3.27,0-.19-.25h0a.58.58,0,0,0-.14.13L83,14.69l0-.33-.19-.25a2.11,2.11,0,0,0,.13.55l-.45-.59h0c0,.08-.09.11-.13.1l.34.45c0,.29-.07.58-.1.88-.34.58-.36-.74-.69-1.36a3,3,0,0,0-.08.58l-.13,0c-.05.22-.09.42-.14.62h0c-.11.47-.22.91-.34,1.33.06-.52.12-1,.17-1.55a.35.35,0,0,0-.4,0c-.19,1-.32,2-.45,3l-1-.08v.07l1,0,0,.15-.81-.07v.12l.82,0c0,.13,0,.26,0,.4l-.51,0,0,.65a41.25,41.25,0,0,1-.5,4.9,8.43,8.43,0,0,0,0-2.19s0,.05,0,.15l0,.43c0,.36-.08.87-.14,1.46-.07.83-.17,1.8-.27,2.74a25.62,25.62,0,0,1,.18-2.71,38.84,38.84,0,0,0,.45-4.82v-.56l0,.55c-.09,1-.24,2-.38,3,.1-1,.16-2,.21-3l0-.4,0,.4c-.2,2.59-.45,5.06-.75,7.61,0,.35-.08.7-.11,1.05a1.76,1.76,0,0,1-.28-.78l0-.12-.17,1.1L78,30l0,.6h-.14c.05-.74.16-1.53.29-2.34l.1-2v-.05c-.12.82-.26,1.66-.39,2.48l-.12,1.88H77.6c.06-.6.15-1.23.25-1.87.08-1.45.15-2.88.18-4.26-.12.93-.26,2-.34,2.91-.07,1.1-.14,2.16-.21,3.22l-1.71-.12a6.89,6.89,0,0,1-1.28.05c-1,0-2.09-.18-3-.27.15.11-.33,0-.34.09A18.57,18.57,0,0,1,67.89,30c-.16,0-.16-.07-.32-.13a8.43,8.43,0,0,1-.9.07H66l-.71-.09-.23,0v-.14l1.59.11.83.06h.06l8.2.55.39-.05A32,32,0,0,0,71,30a10.85,10.85,0,0,1-1.14,0c-1.07-.12-2.12-.18-3.15-.22L65,29.68v.14l-1.62-.18c-.48,0,.28.35-.52.29L63,30a3.83,3.83,0,0,1,1.32.13c.19.2-.81.17-1.56.24a1.25,1.25,0,0,0-.08-.27l-.39.3,0,0h0l-.06,0,.09-.06a1.51,1.51,0,0,1,.15-.33l-.3.23c0-.1,0-.2,0-.28l-.25.2v.05l.13.14-.55.42-.32,0-.25.19a2.22,2.22,0,0,0,.55-.13l-.6.45h0c.09.06.11.1.1.14l.45-.34.88.1c.58.33-.73.35-1.36.69.16,0,.36.06.58.08v.13l.62.14h0c.48.1.92.21,1.34.33-.52-.05-1-.12-1.55-.16a.33.33,0,0,0-.05.4c1,.18,2,.32,3,.44l-.08,1h.06l0-1H65l-.08.82H65l0-.82.4,0,0,.51.66,0a46.05,46.05,0,0,1,4.9.5,8.28,8.28,0,0,0-2.2,0l.15,0,.43,0,1.46.13c.83.08,1.81.17,2.74.28-1,0-2.11-.11-2.71-.19a40.89,40.89,0,0,0-4.82-.44l-.56,0,.56.06c1,.09,2,.24,3,.38-1-.11-2-.16-3-.21l-.4,0,.4,0c2.6.21,5.06.45,7.61.76l1.06.11a1.78,1.78,0,0,1-.78.27l-.12,0,1.09.18,1.76.1.43,0V36c-.69-.06-1.43-.16-2.18-.28l-2-.1h0c.82.11,1.65.26,2.47.38l1.73.12v.12c-.56-.06-1.13-.14-1.72-.24-1.44-.08-2.87-.14-4.26-.18.93.13,2,.27,2.92.35l3,.2L77,37.93A7.72,7.72,0,0,1,77,39.2c0,1-.19,2.09-.28,3,.11-.14,0,.34.09.34a18.68,18.68,0,0,1-.29,3.22c0,.16-.07.15-.13.31a8.62,8.62,0,0,1,.07.91v.64l-.09.72,0,.22h-.14L76.37,47l.06-.83v-.06c.19-2.85.38-5.53.55-8.19l0-.4a32.14,32.14,0,0,0-.41,5.18,10.85,10.85,0,0,1,0,1.14c-.11,1.08-.17,2.12-.22,3.15l-.08,1.69h.14l-.18,1.62c0,.49.35-.28.29.53l.06-.12a4.47,4.47,0,0,1,.13-1.32c.2-.18.17.81.24,1.56l-.27.09.3.39h0l0,.06L77,51.44a1.44,1.44,0,0,1-.33-.16l.23.3-.28,0,.2.26h0a.86.86,0,0,0,.14-.13l.42.55,0,.33.19.25a2,2,0,0,0-.13-.55l.45.59h0c.06-.08.1-.11.14-.1l-.34-.45c0-.29.07-.59.1-.88.33-.58.35.74.69,1.36a4.06,4.06,0,0,0,.08-.58l.13,0c0-.23.09-.42.14-.62h0c.1-.47.22-.92.34-1.33-.06.52-.12,1-.17,1.54a.33.33,0,0,0,.4,0c.18-1,.32-2,.44-3l1,.09v-.07l-1,0,0-.16.81.08v-.12l-.82,0c0-.13,0-.26,0-.4l.51,0,0-.66a45.67,45.67,0,0,1,.5-4.89,8.19,8.19,0,0,0,0,2.19s0-.05,0-.15l0-.43c0-.36.08-.87.13-1.46.08-.83.17-1.8.28-2.74a25.26,25.26,0,0,1-.19,2.71,40.89,40.89,0,0,0-.44,4.82v.56l.05-.55c.09-1,.24-2,.38-3-.1,1-.16,2-.21,3l0,.4,0-.4c.21-2.59.46-5.06.76-7.61,0-.35.08-.7.11-1a1.74,1.74,0,0,1,.27.78l0,.11.18-1.09L82.39,37v-.29h.15c-.06.66-.16,1.34-.27,2l-.1,2v0c.11-.83.26-1.66.39-2.48,0-.52.06-1.05.1-1.58h.11c-.06.51-.13,1-.21,1.57-.09,1.45-.15,2.87-.19,4.26.13-.93.27-2,.35-2.91s.13-2,.19-2.91l1.73.11a6.78,6.78,0,0,1,1.27,0c1,0,2.09.19,3.06.27-.15-.11.33,0,.34-.09a18.63,18.63,0,0,1,3.21.3c.16,0,.15.06.31.12a6.73,6.73,0,0,1,.91-.06l.65,0,.71.1.23,0,0,.14-1.59-.11-.83-.06h-.06l-8.19-.55-.4,0a32.27,32.27,0,0,0,5.18.42,8.88,8.88,0,0,1,1.15,0c1.07.11,2.12.17,3.15.22l1.68.08v-.14l1.62.18c.48,0-.28-.36.52-.29l-.11-.06a4,4,0,0,1-1.32-.14c-.19-.19.8-.16,1.56-.23a1.46,1.46,0,0,0,.08.27l.39-.3,0,0h0l0,0-.08.07a2.86,2.86,0,0,1-.15.33l.3-.23a2.28,2.28,0,0,0,0,.27l.25-.19v0c0-.05-.09-.11-.13-.14l.55-.43.32,0,.25-.19a1.85,1.85,0,0,0-.55.13l.59-.46Zm-4.31-.28h.14l-.14,0ZM78.26,49c0-.06,0-.12,0-.17h0l0,.18ZM65.11,31.58H65a.58.58,0,0,1,.14,0ZM82.16,18c0,.06,0,.12,0,.17H82.1l0-.18Zm.11.36v-.14l0,.14Zm-.12-.17,0,.17h0a1,1,0,0,1,0-.17ZM64.73,31.72l0,0h.17v0ZM78.15,48.58v.15a.8.8,0,0,1,0-.15Zm.12.17,0-.16h0s0,.11,0,.17ZM95.69,35.56l0,0H95.5v0ZM65.11,31.77l-.17,0V31.7h.17Zm30.2,3.74.17,0v0h-.17ZM83.1,16.18l0-.07h0Zm.28-.76a.12.12,0,0,1-.1,0h.08Zm-.49-.64.46.61h-.1l0,0v0h-.1v0h.09v0l-.09,0c0,.17.1.35-.07.49h0a3.33,3.33,0,0,1-.09-.71h0v-.32h0c0,.05,0,.08,0,.12A1.5,1.5,0,0,1,82.89,14.78Zm-20,16-.07,0v0Zm-.76-.28a.1.1,0,0,1,0,.1v-.08Zm-.64.49.61-.46,0,.1,0,0h0l0,.1h.05v-.09h0l0,.09c.16,0,.34-.1.49.07v0a3.15,3.15,0,0,1-.7.09h-.32l.12,0ZM77.32,50.79l0,.07h0Zm-.28.75a.17.17,0,0,1,.1,0h-.08Zm.49.65-.46-.61h.1s0,0,0,0v0h.1v0h-.09v0l.09,0c0-.16-.1-.34.07-.48h0a3.33,3.33,0,0,1,.09.71h0v.32h0s0-.08,0-.13S77.54,52.12,77.53,52.19Zm20-15.66.07,0v0Zm.29-.06v0a4,4,0,0,1,.7-.08h.32l-.12,0h.2l-.61.47,0-.1,0,0h0l0-.09h0v.09h0a.94.94,0,0,1,0-.09C98.12,36.54,98,36.64,97.8,36.47Zm.49.24v.08l0,0A.12.12,0,0,1,98.29,36.71Z"></path><path class="cls-1" d="M88,32a13.68,13.68,0,0,1,1.43,0l.49-.17-.13,0-2.29-.08a7.48,7.48,0,0,0-.88.07Z"></path><path class="cls-1" d="M89.39,31.94c-1,.41,1,.07,0,0Z"></path><polygon class="cls-1" points="64.8 34.3 65.67 34.34 64.8 34.27 64.8 34.3"></polygon><polygon class="cls-1" points="65.54 34.13 65.04 34.09 65.04 34.12 65.54 34.13"></polygon><path class="cls-1" d="M77.11,30.41l-.64-.09-.31,0,.45.07Z"></path><path class="cls-1" d="M82.42,14.17l-.1-.13C82.35,14.11,82.38,14.16,82.42,14.17Z"></path><polygon class="cls-1" points="83.86 15.14 83.69 14.92 83.75 14.9 83.67 14.89 83.1 14.14 83.07 14.36 83.64 15.11 83.86 15.14"></polygon><path class="cls-1" d="M78.52,25.73a13.68,13.68,0,0,1,0-1.43c-.05-.12-.1-.27-.17-.48l0,.13-.08,2.28a7.31,7.31,0,0,0,.07.88Z"></path><path class="cls-1" d="M78.51,24.3c.41,1,.08-1,0,0Z"></path><polygon class="cls-1" points="80.71 48.15 80.66 48.65 80.69 48.65 80.71 48.15"></polygon><polygon class="cls-1" points="80.87 48.89 80.91 48.02 80.84 48.89 80.87 48.89"></polygon><path class="cls-1" d="M77,36.59l-.09.64,0,.3.07-.45Z"></path><path class="cls-1" d="M78,52.8l.1.13C78.07,52.86,78,52.81,78,52.8Z"></path><polygon class="cls-1" points="76.56 51.83 76.72 52.05 76.67 52.07 76.75 52.08 77.32 52.83 77.35 52.6 76.78 51.86 76.56 51.83"></polygon><path class="cls-1" d="M81.9,41.24a13.68,13.68,0,0,1,0,1.43c0,.12.1.27.17.48l0-.13.08-2.28c0-.32,0-.63-.08-.89C82,40.32,82,40.78,81.9,41.24Z"></path><path class="cls-1" d="M81.91,42.67c-.41-1-.08,1,0,0Z"></path><polygon class="cls-1" points="79.71 18.82 79.76 18.32 79.73 18.32 79.71 18.82"></polygon><polygon class="cls-1" points="79.55 18.07 79.51 18.95 79.58 18.08 79.55 18.07"></polygon><path class="cls-1" d="M83.44,30.38l.09-.64,0-.3-.07.45Z"></path><ellipse class="cls-1" cx="11.09" cy="33.19" rx="9.58" ry="11.33" transform="translate(-14.2 9) rotate(-27.8)"></ellipse><ellipse class="cls-1" cx="60.02" cy="15.19" rx="14.15" ry="9.58" transform="translate(27.77 68.03) rotate(-72.8)"></ellipse><ellipse class="cls-1" cx="31.42" cy="15.19" rx="9.58" ry="14.15" transform="translate(-3.09 9.97) rotate(-17.2)"></ellipse><path class="cls-1" d="M69.64,48.53C54.91,32.81,45.56,33.19,45.5,33.19s-9.4-.38-24.13,15.34-7.89,23.16-4.93,25.62,10.35,4.93,27.1,0h3.93c16.75,4.93,24.14,2.47,27.1,0S84.42,64.3,69.64,48.53Z"></path></svg>