<svg xmlns="http://www.w3.org/2000/svg" width="102.329" height="78.162" viewBox="0 0 102.329 78.162">
  <g id="petcicla-Recuperado-black" transform="translate(2.669 1.164)">
    <path id="Trazado_1" data-name="Trazado 1" d="M60.89,31.43l-.13.1C60.84,31.5,60.88,31.47,60.89,31.43Z" fill="#58bbad"/>
    <path id="Trazado_2" data-name="Trazado 2" d="M61.87,29.98l-.22.17-.02-.06-.01.09-.75.57.22.03.75-.57Z" fill="#58bbad"/>
    <path id="Trazado_3" data-name="Trazado 3" d="M72.45,35.32H71.03l-.49.17h.13l2.29.08a3.068,3.068,0,0,0,.88-.08Z" fill="#58bbad"/>
    <path id="Trazado_4" data-name="Trazado 4" d="M71,35.34C72,34.93,70,35.26,71,35.34Z" fill="#58bbad"/>
    <path id="Trazado_5" data-name="Trazado 5" d="M95.62,32.98l-.88-.04.88.07Z" fill="#58bbad"/>
    <path id="Trazado_6" data-name="Trazado 6" d="M94.88,33.14l.5.05v-.03Z" fill="#58bbad"/>
    <path id="Trazado_7" data-name="Trazado 7" d="M83.31,36.87,84,37h.3l-.45-.07Z" fill="#58bbad"/>
    <path id="Trazado_8" data-name="Trazado 8" d="M99.53,35.85l.13-.1C99.58,35.78,99.54,35.81,99.53,35.85Z" fill="#58bbad"/>
    <path id="Trazado_9" data-name="Trazado 9" d="M98.55,37.29l.22-.17.02.06.01-.08.75-.57-.22-.03-.75.57Z" fill="#58bbad"/>
    <path id="Trazado_10" data-name="Trazado 10" d="M99.62,36h0a.1.1,0,0,1-.09-.13l-.45.34-.88-.1c-.59-.34.73-.36,1.35-.69a2.9,2.9,0,0,0-.58-.08v-.13l-.62-.14h0c-.48-.11-.92-.22-1.34-.34l1.55.17a.32.32,0,0,0,0-.4c-1-.19-2-.32-3-.45l.08-1h-.06l-.05,1h-.15l.08-.81h-.12v.81L95,34v-.52h-.66a41.251,41.251,0,0,1-4.9-.5,8.55,8.55,0,0,0,2.2,0h-.58l-1.47-.14c-.82-.07-1.8-.17-2.73-.27a25.81,25.81,0,0,1,2.71.18,38.689,38.689,0,0,0,4.82.44h0c-.95-.09-2-.24-3-.39,1,.11,2,.17,3,.22h.01c-2.6-.21-5.06-.45-7.61-.76L85.68,32a1.92,1.92,0,0,1,.78-.27h.12l-1.09-.17-1.76-.11h-.45v-.14c.71.06,1.45.16,2.21.28l2,.1h.05L85,31.28l-1.75-.11V31l1.74.24c1.44.08,2.87.15,4.26.18-.93-.12-2-.26-2.92-.34l-3.07-.21L83.43,29a9.049,9.049,0,0,1-.05-1.27c0-1,.19-2.09.28-3.06-.11.15,0-.33-.09-.33a18.589,18.589,0,0,1,.29-3.22c0-.16.07-.15.12-.31a8.687,8.687,0,0,1-.06-.91v-.64a4.611,4.611,0,0,1,.1-.72v-.22h.14L84.05,20l-.06.83v.06c-.19,2.84-.37,5.53-.55,8.19v.4a31.07,31.07,0,0,0,.42-5.18,10.916,10.916,0,0,1,0-1.14C84,22,84,21,84.09,20l.08-1.69H84l.18-1.62c0-.49-.36.28-.29-.53l-.06.12a4.47,4.47,0,0,1-.13,1.32c-.2.18-.17-.81-.24-1.56l.27-.09-.3-.39h0v-.05l.06.08a1.69,1.69,0,0,1,.33.16l-.23-.3h.27l-.19-.25h0a.58.58,0,0,0-.14.13L83,14.69v-.33l-.19-.25a2.11,2.11,0,0,0,.13.55l-.45-.59h0a.111.111,0,0,1-.13.1l.34.45c0,.29-.07.58-.1.88-.34.58-.36-.74-.69-1.36a3,3,0,0,0-.08.58H81.7c-.05.22-.09.42-.14.62h0c-.11.47-.22.91-.34,1.33.06-.52.12-1,.17-1.55a.35.35,0,0,0-.4,0c-.19,1-.32,2-.45,3l-1-.08v.07h1v.15l-.81-.07v.12h.82v.4h-.51v.65a41.249,41.249,0,0,1-.5,4.9,8.43,8.43,0,0,0,0-2.19v.58c0,.36-.08.87-.14,1.46-.07.83-.17,1.8-.27,2.74a25.619,25.619,0,0,1,.18-2.71,38.84,38.84,0,0,0,.45-4.82v-.01c-.09,1-.24,2-.38,3,.1-1,.16-2,.21-3v0c-.2,2.59-.45,5.06-.75,7.61,0,.35-.08.7-.11,1.05a1.76,1.76,0,0,1-.28-.78v-.12l-.17,1.1L78,30v.6h-.14c.05-.74.16-1.53.29-2.34l.1-2v-.05c-.12.82-.26,1.66-.39,2.48l-.12,1.88H77.6c.06-.6.15-1.23.25-1.87.08-1.45.15-2.88.18-4.26-.12.93-.26,2-.34,2.91-.07,1.1-.14,2.16-.21,3.22l-1.71-.12a6.89,6.89,0,0,1-1.28.05c-1,0-2.09-.18-3-.27.15.11-.33,0-.34.09A18.57,18.57,0,0,1,67.89,30c-.16,0-.16-.07-.32-.13a8.43,8.43,0,0,1-.9.07H66l-.71-.09h-.23v-.14l1.59.11.83.06h.06l8.2.55.39-.05A32,32,0,0,0,71,30a10.85,10.85,0,0,1-1.14,0c-1.07-.12-2.12-.18-3.15-.22L65,29.68v.14l-1.62-.18c-.48,0,.28.35-.52.29L63,30a3.83,3.83,0,0,1,1.32.13c.19.2-.81.17-1.56.24a1.25,1.25,0,0,0-.08-.27l-.39.3h-.06l.09-.06a1.51,1.51,0,0,1,.15-.33l-.3.23v-.28l-.25.2v.05l.13.14-.55.42h-.32l-.25.19a2.22,2.22,0,0,0,.55-.13l-.6.45h0c.09.06.11.1.1.14l.45-.34.88.1c.58.33-.73.35-1.36.69.16,0,.36.06.58.08v.13l.62.14h0c.48.1.92.21,1.34.33-.52-.05-1-.12-1.55-.16a.33.33,0,0,0-.05.4c1,.18,2,.32,3,.44l-.08,1h.06v-1H65l-.08.82H65v-.82h.4v.51h.66a46.052,46.052,0,0,1,4.9.5,8.28,8.28,0,0,0-2.2,0h.58l1.46.13c.83.08,1.81.17,2.74.28a22.577,22.577,0,0,1-2.71-.19,40.889,40.889,0,0,0-4.82-.44h-.56l.56.06c1,.09,2,.24,3,.38-1-.11-2-.16-3-.21h0c2.6.21,5.06.45,7.61.76l1.06.11a1.78,1.78,0,0,1-.78.27h-.12l1.09.18,1.76.1h.43V36c-.69-.06-1.43-.16-2.18-.28l-2-.1h0c.82.11,1.65.26,2.47.38l1.73.12v.12c-.56-.06-1.13-.14-1.72-.24-1.44-.08-2.87-.14-4.26-.18.93.13,2,.27,2.92.35l3,.2L77,37.93a7.72,7.72,0,0,1,0,1.27c0,1-.19,2.09-.28,3,.11-.14,0,.34.09.34a18.68,18.68,0,0,1-.29,3.22c0,.16-.07.15-.13.31a8.619,8.619,0,0,1,.07.91v.64l-.09.72v.22h-.14L76.37,47l.06-.83v-.06c.19-2.85.38-5.53.55-8.19v-.4a32.139,32.139,0,0,0-.41,5.18,10.85,10.85,0,0,1,0,1.14c-.11,1.08-.17,2.12-.22,3.15l-.08,1.69h.14l-.18,1.62c0,.49.35-.28.29.53l.06-.12a4.47,4.47,0,0,1,.13-1.32c.2-.18.17.81.24,1.56l-.27.09.3.39h0v.06l.02-.05a1.44,1.44,0,0,1-.33-.16l.23.3h-.28l.2.26h0a.861.861,0,0,0,.14-.13l.42.55v.33l.19.25a2,2,0,0,0-.13-.55l.45.59h0c.06-.08.1-.11.14-.1l-.34-.45a8.778,8.778,0,0,1,.1-.88c.33-.58.35.74.69,1.36a4.061,4.061,0,0,0,.08-.58h.13a2.441,2.441,0,0,1,.14-.62h0c.1-.47.22-.92.34-1.33-.06.52-.12,1-.17,1.54a.33.33,0,0,0,.4,0c.18-1,.32-2,.44-3l1,.09v-.07h-1v-.16l.81.08v-.12h-.82v-.4h.51v-.66a45.674,45.674,0,0,1,.5-4.89,8.19,8.19,0,0,0,0,2.19V44.3c0-.36.08-.87.13-1.46.08-.83.17-1.8.28-2.74a25.262,25.262,0,0,1-.19,2.71,40.889,40.889,0,0,0-.44,4.82v.56l.05-.55c.09-1,.24-2,.38-3-.1,1-.16,2-.21,3v0c.21-2.59.46-5.06.76-7.61a9.556,9.556,0,0,1,.11-1,1.74,1.74,0,0,1,.27.78v.11l.18-1.09L82.39,37v-.29h.15c-.06.66-.16,1.34-.27,2l-.1,2h0c.11-.83.26-1.66.39-2.48,0-.52.06-1.05.1-1.58h.11c-.06.51-.13,1-.21,1.57-.09,1.45-.15,2.87-.19,4.26.13-.93.27-2,.35-2.91s.13-2,.19-2.91l1.73.11a6.78,6.78,0,0,1,1.27,0c1,0,2.09.19,3.06.27-.15-.11.33,0,.34-.09a18.63,18.63,0,0,1,3.21.3c.16,0,.15.06.31.12a6.73,6.73,0,0,1,.91-.06h.65l.71.1h.23v.14l-1.59-.11-.83-.06h-.06l-8.19-.55h-.4a32.27,32.27,0,0,0,5.18.42,8.88,8.88,0,0,1,1.15,0c1.07.11,2.12.17,3.15.22l1.68.08v-.14l1.62.18c.48,0-.28-.36.52-.29l-.11-.06a4,4,0,0,1-1.32-.14c-.19-.19.8-.16,1.56-.23a1.462,1.462,0,0,0,.08.27l.39-.3h0l-.08.07a2.858,2.858,0,0,1-.15.33l.3-.23a2.28,2.28,0,0,0,0,.27l.25-.19h0c0-.05-.09-.11-.13-.14l.55-.43h.32l.25-.19a1.85,1.85,0,0,0-.55.13l.59-.46Zm-4.31-.28h0ZM78.26,49v-.17h0v.18ZM65.11,31.58H65a.58.58,0,0,1,.14,0ZM82.16,18v.17H82.1v-.18Zm.11.36v0Zm-.12-.17v.17h0A1,1,0,0,1,82.15,18.19ZM64.73,31.72ZM78.15,48.58v.15A.8.8,0,0,1,78.15,48.58Zm.12.17v-.16h0v.17ZM95.69,35.56ZM65.11,31.77h-.17V31.7h.17Zm30.2,3.74h0ZM83.1,16.18v-.07h0Zm.28-.76a.12.12,0,0,1-.1,0h.08Zm-.49-.64.46.61h-.2c0,.17.1.35-.07.49h0a3.33,3.33,0,0,1-.09-.71h0v-.32h0v.12a1.5,1.5,0,0,1-.1-.19Zm-20,16h-.07Zm-.76-.28a.1.1,0,0,1,0,.1v-.08Zm-.64.49.61-.46v.1h0v.1h.05v-.09h0v.09c.16,0,.34-.1.49.07h0a3.15,3.15,0,0,1-.7.09h-.2Zm15.83,19.8v.07h0Zm-.28.75a.17.17,0,0,1,.1,0h-.08Zm.49.65-.46-.61h.2c0-.16-.1-.34.07-.48h0a3.331,3.331,0,0,1,.09.71h0v.32h0V52c0-.05.11.12.1.19Zm20-15.66h.07Zm.29-.06h0a4,4,0,0,1,.7-.08h.4l-.61.47v-.1h0v-.09h0v.09h0q0-.045,0-.09c-.19-.13-.31-.03-.51-.2Zm.49.24v.08h0a.12.12,0,0,1-.02-.08Z" fill="#58bbad"/>
    <path id="Trazado_11" data-name="Trazado 11" d="M88,32a13.679,13.679,0,0,1,1.43,0l.49-.17h-.13l-2.29-.08a7.48,7.48,0,0,0-.88.07Z" fill="#58bbad"/>
    <path id="Trazado_12" data-name="Trazado 12" d="M89.39,31.94C88.39,32.35,90.39,32.01,89.39,31.94Z" fill="#58bbad"/>
    <path id="Trazado_13" data-name="Trazado 13" d="M64.8,34.3l.87.04-.87-.07Z" fill="#58bbad"/>
    <path id="Trazado_14" data-name="Trazado 14" d="M65.54,34.13l-.5-.04v.03Z" fill="#58bbad"/>
    <path id="Trazado_15" data-name="Trazado 15" d="M77.11,30.41l-.64-.09h-.31l.45.07Z" fill="#58bbad"/>
    <path id="Trazado_16" data-name="Trazado 16" d="M82.42,14.17l-.1-.13C82.35,14.11,82.38,14.16,82.42,14.17Z" fill="#58bbad"/>
    <path id="Trazado_17" data-name="Trazado 17" d="M83.86,15.14l-.17-.22.06-.02-.08-.01-.57-.75-.03.22.57.75Z" fill="#58bbad"/>
    <path id="Trazado_18" data-name="Trazado 18" d="M78.52,25.73a13.679,13.679,0,0,1,0-1.43c-.05-.12-.1-.27-.17-.48v.13l-.08,2.28a7.311,7.311,0,0,0,.07.88Z" fill="#58bbad"/>
    <path id="Trazado_19" data-name="Trazado 19" d="M78.51,24.3C78.92,25.3,78.59,23.3,78.51,24.3Z" fill="#58bbad"/>
    <path id="Trazado_20" data-name="Trazado 20" d="M80.71,48.15l-.05.5h.03Z" fill="#58bbad"/>
    <path id="Trazado_21" data-name="Trazado 21" d="M80.87,48.89l.04-.87-.07.87Z" fill="#58bbad"/>
    <path id="Trazado_22" data-name="Trazado 22" d="M77,36.59l-.09.64v.3l.07-.45Z" fill="#58bbad"/>
    <path id="Trazado_23" data-name="Trazado 23" d="M78,52.8l.1.13A.64.64,0,0,0,78,52.8Z" fill="#58bbad"/>
    <path id="Trazado_24" data-name="Trazado 24" d="M76.56,51.83l.16.22-.05.02.08.01.57.75.03-.23-.57-.74Z" fill="#58bbad"/>
    <path id="Trazado_25" data-name="Trazado 25" d="M81.9,41.24a13.679,13.679,0,0,1,0,1.43,2.351,2.351,0,0,0,.17.48v-.13l.08-2.28a3.139,3.139,0,0,0-.08-.89C82,40.32,82,40.78,81.9,41.24Z" fill="#58bbad"/>
    <path id="Trazado_26" data-name="Trazado 26" d="M81.91,42.67C81.5,41.67,81.83,43.67,81.91,42.67Z" fill="#58bbad"/>
    <path id="Trazado_27" data-name="Trazado 27" d="M79.71,18.82l.05-.5h-.03Z"/>
    <path id="Trazado_28" data-name="Trazado 28" d="M79.55,18.07l-.04.88.07-.87Z"/>
    <path id="Trazado_29" data-name="Trazado 29" d="M83.44,30.38l.09-.64v-.3l-.07.45Z"/>
    <ellipse id="Elipse_22" data-name="Elipse 22" cx="9.58" cy="11.33" rx="9.58" ry="11.33" transform="translate(-2.669 27.633) rotate(-27.8)" fill="#fff"/>
    <ellipse id="Elipse_23" data-name="Elipse 23" cx="14.15" cy="9.58" rx="14.15" ry="9.58" transform="matrix(0.296, -0.955, 0.955, 0.296, 46.693, 25.87)" fill="#fff"/>
    <ellipse id="Elipse_24" data-name="Elipse 24" cx="9.58" cy="14.15" rx="9.58" ry="14.15" transform="matrix(0.955, -0.296, 0.296, 0.955, 18.081, 4.505)" fill="#fff"/>
    <path id="Trazado_30" data-name="Trazado 30" d="M69.64,48.53C54.91,32.81,45.56,33.19,45.5,33.19s-9.4-.38-24.13,15.34-7.89,23.16-4.93,25.62,10.35,4.93,27.1,0h3.93c16.75,4.93,24.14,2.47,27.1,0S84.42,64.3,69.64,48.53Z" fill="#fff"/>
  </g>
</svg>
